<svg xmlns="http://www.w3.org/2000/svg" xml:space="preserve" width="64" height="64" style="shape-rendering:geometricPrecision;text-rendering:geometricPrecision;image-rendering:optimizeQuality;fill-rule:evenodd;clip-rule:evenodd" viewBox="29.636 49.875 980.751 876.664">
  <defs>
    <style>
      .fil0{fill:#cd1201}
    </style>
  </defs>
  <g id="Layer_x0020_1">
    <path class="fil0" d="M736.798 459.716c19.155-8.433 65.777-22.408 116.736 10.842-86.136-12.89-79.149 45.056-13.131 33.732 0 0 81.559-24.696 147.095 41.562-135.891-34.093-103.605 69.993-208.776 47.104 0 0 10.36 23.492 62.042 20.36 0 0-70.355 26.744-106.376 6.746 9.517-26.142 14.697-54.332 14.697-83.727 0-26.744-4.337-52.525-12.288-76.619zm-123-142.637c6.867-20.841 27.347-62.765 83.848-79.029-66.138 56.621-17.709 89.389 16.986 32.045 0 0 34.696-77.824 127.819-83.848-114.929 80.233-15.059 124.085-101.195 188.536 0 0 24.456 7.59 56.019-33.611 0 0-29.877 81.438-73.367 86.98-23.612-47.947-62.404-87.1-110.11-111.074zm-186.609-13.854c-9.638-19.757-24.215-63.97 4.819-115.049-7.71 86.618 49.754 76.258 34.575 11.083 0 0-29.515-79.872 32.648-149.384-25.901 137.818 76.137 99.268 59.633 205.643 0 0 22.769-11.686 16.504-63.247 0 0 34.816 77.463 9.156 112.399-25.299-8.794-52.405-13.613-80.715-13.613-26.744 0-52.525 4.337-76.619 12.168zM286.6 422.129c-21.203-7.71-61.079-29.033-76.378-83.968 56.139 66.62 89.269 18.552 32.166-16.625 0 0-77.463-35.418-82.884-128.422 79.511 115.411 124.085 15.902 187.814 102.641 0 0 7.831-24.456-33.129-56.26 0 0 81.559 30.6 86.377 74.21-48.791 22.648-88.907 60.958-113.965 108.424zm-12.89 199.62c-22.528 9.035-60.476 16.504-104.087-6.626 86.98 5.18 74.933-51.923 10.12-34.816 0 0-79.029 31.684-150.106-28.552 138.421 22.046 97.099-78.788 203.836-65.295 0 0-12.408-22.408-63.608-14.697 0 0 64.452-31.322 102.52-17.227-9.035 25.54-13.975 53.128-13.975 81.8 0 30.118 5.421 58.91 15.3 85.414zM42.286 816.068s343.703-234.918 968.102-91.678c0 0-154.684 11.445-223.352 108.905-403.94-137.336-744.751-17.227-744.751-17.227z"/>
    <path class="fil0" d="M54.212 821.368s472.124-65.174 686.321 44.816L475.016 926.54S197.452 825.947 54.212 821.369zm449.596-500.193c116.013 0 210.221 94.208 210.221 210.221 0 49.995-17.468 95.774-46.502 131.915-113.001-10.722-232.388 5.06-309.85 19.275-39.514-38.189-64.211-91.799-64.211-151.191 0-116.013 94.208-210.221 210.342-210.221z"/>
  </g>
</svg>
