<svg xmlns="http://www.w3.org/2000/svg" width="498" viewBox="0 0 498 500" xml:space="preserve" height="500">
  <path fill="none" d="M326.8 500.4H.4V.4h498v500H326.8m120.319-72.392.053 12.261c3.201.402 27.517.265 28.964-.124.369-2.413.269-96.384-.123-97.938h-30.079v2.489c0 14.864.022 29.729-.019 44.594a99.706 99.706 0 0 1-.425 8.963c-.19 2.041-.555 4.1-1.134 6.065-1.561 5.295-4.725 9.231-10.179 10.884-3.423 1.038-6.929 1.128-10.468.477-3.578-.658-6.247-2.611-8.097-5.642-.857-1.404-1.489-2.974-2.026-4.536-1.338-3.892-1.458-7.987-1.481-12.027-.094-16.264-.037-32.529-.045-48.794 0-.83-.087-1.66-.134-2.479h-30.392v2.677c0 16.598.016 33.196-.01 49.794-.009 5.795.234 11.572.934 17.325.442 3.639 1.113 7.228 2.335 10.7 2.69 7.641 7.456 13.435 14.89 16.904 3.605 1.681 7.403 2.586 11.336 2.966 6.677.644 13.309.666 19.691-1.84 4.702-1.847 9.006-4.319 12.299-8.258 1.319-1.577 2.533-3.242 3.929-4.825 0 0 .141-.004.181.364M298.733 35.4c-.029 31.394-.058 62.789-.091 94.183 0 .055-.067.11-.107.163-.039.053-.082.104-.131.164-45.744 1.93-85.317 18.537-117.655 50.999-32.376 32.501-48.838 72.202-50.558 118.224H41.899c-9.4 0-18.8-.003-28.2.006-.766.001-1.532.082-2.421.133.03 3.128-.118 6.021.086 9.061h118.963c.682 20.742 4.776 40.51 12.439 59.508 7.703 19.094 18.48 36.28 32.32 51.515 13.79 15.181 29.756 27.582 47.94 37.107 18.198 9.533 37.459 15.636 58.108 18.288v-34.853c0-18-.001-36 .006-54 .001-.833.084-1.665.132-2.554h15.082c.458.811.937 1.606 1.367 2.426 3.834 7.313 7.663 14.63 11.488 21.948 5.46 10.448 10.932 20.889 16.346 31.36.539 1.042 1.149 1.415 2.303 1.411 11.6-.038 23.2-.022 34.8-.031.431 0 .861-.094 1.649-.186l-36.02-59.883c.247-.232.324-.365.43-.394 1.41-.391 2.834-.733 4.235-1.152 12.773-3.818 20.665-12.41 24.257-25.071 2.259-7.962 2.186-16.061.694-24.136-1.313-7.11-4.48-13.329-9.522-18.569-5.086-5.286-11.355-8.534-18.279-10.614-7.834-2.354-15.899-3.258-24.04-3.294-18.133-.081-36.267-.026-54.4-.026h-2.381v88.654c-24.102-14.469-51.545-51.788-42.816-99.769 7.982-43.869 45.497-78.785 93.267-80.677 23.674-.938 45.183 5.96 63.84 20.636 25.088 19.733 37.588 45.929 38.53 77.807h10.365c0-.802.046-1.461-.008-2.111-.379-4.635-.597-9.291-1.204-13.896-1.796-13.636-6.33-26.369-13.17-38.276-5.614-9.772-12.606-18.446-20.921-26.075-7.212-6.617-15.117-12.223-23.816-16.682-14.185-7.271-29.253-11.226-45.196-11.901-9.497-.402-18.884.341-28.159 2.38-23.27 5.116-42.721 16.775-58.562 34.488-7.559 8.453-13.534 17.96-18.098 28.344-5.057 11.506-7.976 23.56-8.817 36.078-.383 5.706-.32 11.434.172 17.162.79 9.204 2.664 18.15 5.731 26.856 5.84 16.576 15.192 30.849 27.944 42.942 5.927 5.621 12.372 10.525 19.391 14.672 1.127.665 1.547 1.373 1.541 2.682-.053 10.866-.028 21.733-.036 32.6 0 .568-.086 1.136-.136 1.747-42.179-15.765-92.283-65.906-88.219-140.352 3.738-68.461 58.527-129.418 134.372-133.878 32.733-1.924 62.993 6.418 89.698 25.525 40.172 28.743 60.084 68.415 61.384 117.706h29.872c.874-11.228-1.606-36.079-9.352-57.889-10.374-29.208-27.19-54.045-50.716-74.179-31.01-26.539-67.133-40.225-108.119-41.796V11.287h-9.31V35.4M133.48 120.018c-1.132 1.129-2.293 2.23-3.387 3.395-1.071 1.141-2.409 2.056-2.931 3.033l46.655 46.655 7.067-7.062c-.361-.379-.848-.909-1.356-1.417a256658.3 256658.3 0 0 0-43.652-43.654c-.423-.424-.83-.879-1.316-1.216-.185-.129-.573.035-1.08.266m34.965 311.427-44.63 44.63 7.197 7.214 46.358-46.358-7.158-7.218c-.439.429-1.004.981-1.767 1.732m281.31-266.29 33.734-33.734-7.214-7.178-46.567 46.567 7.22 7.177 12.827-12.832m-99.15 311.312h35.186c-.327-.73-.471-1.152-.692-1.529-1.484-2.526-3.021-5.022-4.461-7.573-.564-.999-1.277-1.323-2.405-1.319-12.196.035-24.392.02-36.588.028-.496.001-.991.096-1.749.173 1.344 2.64 2.552 5.069 3.812 7.47 1.45 2.76 1.47 2.749 4.701 2.75h2.196m120.39-.001h5.204v-10.122c-2.339-.468-27.524-.367-29.065.138 0 1.608-.041 3.268.012 4.924.052 1.634-.245 3.294.259 5.06h23.59z"/>
  <path fill="currentColor" d="M298.733 35.2V11.287h9.31v118.644c40.986 1.571 77.109 15.257 108.119 41.796 23.526 20.134 40.342 44.971 50.716 74.179 7.746 21.81 10.226 46.661 9.352 57.889h-29.872c-1.3-49.291-21.212-88.963-61.384-117.706-26.705-19.107-56.965-27.449-89.698-25.525-75.845 4.46-130.634 65.417-134.372 133.878-4.064 74.446 46.04 124.587 88.219 140.352.05-.611.136-1.179.136-1.747.008-10.867-.017-21.734.036-32.6.006-1.309-.414-2.017-1.541-2.682-7.019-4.147-13.464-9.051-19.391-14.672-12.752-12.093-22.104-26.366-27.944-42.942-3.067-8.706-4.941-17.652-5.731-26.856a112.413 112.413 0 0 1-.172-17.162c.841-12.518 3.76-24.572 8.817-36.078 4.564-10.384 10.539-19.891 18.098-28.344 15.841-17.713 35.292-29.372 58.562-34.488 9.275-2.039 18.662-2.782 28.159-2.38 15.943.675 31.011 4.63 45.196 11.901 8.699 4.459 16.604 10.065 23.816 16.682 8.315 7.629 15.307 16.303 20.921 26.075 6.84 11.907 11.374 24.64 13.17 38.276.607 4.605.825 9.261 1.204 13.896.054.65.008 1.309.008 2.111h-10.365c-.942-31.878-13.442-58.074-38.53-77.807-18.657-14.676-40.166-21.574-63.84-20.636-47.77 1.892-85.285 36.808-93.267 80.677-8.729 47.981 18.714 85.3 42.816 99.769v-88.654h2.381c18.133 0 36.267-.055 54.4.026 8.141.036 16.206.94 24.04 3.294 6.924 2.08 13.193 5.328 18.279 10.614 5.042 5.24 8.209 11.459 9.522 18.569 1.492 8.075 1.565 16.174-.694 24.136-3.592 12.661-11.484 21.253-24.257 25.071-1.401.419-2.825.761-4.235 1.152-.106.029-.183.162-.43.394l36.02 59.883c-.788.092-1.218.186-1.649.186-11.6.009-23.2-.007-34.8.031-1.154.004-1.764-.369-2.303-1.411-5.414-10.471-10.886-20.912-16.346-31.36-3.825-7.318-7.654-14.635-11.488-21.948-.43-.82-.909-1.615-1.367-2.426h-15.082c-.048.889-.131 1.721-.132 2.554-.007 18-.006 36-.006 54v34.853c-20.649-2.652-39.91-8.755-58.108-18.288-18.184-9.525-34.15-21.926-47.94-37.107-13.84-15.235-24.617-32.421-32.32-51.515-7.663-18.998-11.757-38.766-12.439-59.508H11.364c-.204-3.04-.056-5.933-.086-9.061.889-.051 1.655-.132 2.421-.133 9.4-.009 18.8-.006 28.2-.006h88.292c1.72-46.022 18.182-85.723 50.558-118.224 32.338-32.462 71.911-49.069 117.655-50.999.049-.06.092-.111.131-.164.04-.053.107-.108.107-.163.033-31.394.062-62.789.091-94.383m19.272 291.749c-4.471-2.191-9.309-2.731-14.166-2.842-6.859-.158-13.724-.043-20.586-.036-.643 0-1.287.056-1.989.089v32.18c.636.048 1.153.128 1.669.12 8.384-.123 16.768-.259 25.151-.389a24.602 24.602 0 0 0 8.009-1.459c5.45-1.962 9.055-5.519 9.696-11.502.721-6.744-.926-12.412-7.784-16.161z"/>
  <path fill="currentColor" d="M446.803 427.602c-1.261 1.625-2.475 3.29-3.794 4.867-3.293 3.939-7.597 6.411-12.299 8.258-6.382 2.506-13.014 2.484-19.691 1.84-3.933-.38-7.731-1.285-11.336-2.966-7.434-3.469-12.2-9.263-14.89-16.904-1.222-3.472-1.893-7.061-2.335-10.7-.7-5.753-.943-11.53-.934-17.325.026-16.598.01-33.196.01-49.794v-2.677h30.392c.047.819.134 1.649.134 2.479.008 16.265-.049 32.53.045 48.794.023 4.04.143 8.135 1.481 12.027.537 1.562 1.169 3.132 2.026 4.536 1.85 3.031 4.519 4.984 8.097 5.642 3.539.651 7.045.561 10.468-.477 5.454-1.653 8.618-5.589 10.179-10.884.579-1.965.944-4.024 1.134-6.065.277-2.976.417-5.974.425-8.963.041-14.865.019-29.73.019-44.594v-2.489h30.079c.392 1.554.492 95.525.123 97.938-1.447.389-25.763.526-28.964.124-.018-4.057-.036-8.159-.067-12.524-.109-.223-.205-.183-.302-.143zM133.585 119.918c.402-.131.79-.295.975-.166.486.337.893.792 1.316 1.216a256658.3 256658.3 0 0 1 43.652 43.654c.508.508.995 1.038 1.356 1.417l-7.067 7.062-46.655-46.655c.522-.977 1.86-1.892 2.931-3.033 1.094-1.165 2.255-2.266 3.492-3.495zm34.959 311.427 1.668-1.632 7.158 7.218-46.358 46.358-7.197-7.214 44.729-44.73zm281.111-266.09-12.727 12.732-7.22-7.177 46.567-46.567 7.214 7.178-33.834 33.834zm-99.248 311.212h-1.998c-3.231-.001-3.251.01-4.701-2.75-1.26-2.401-2.468-4.83-3.812-7.47.758-.077 1.253-.172 1.749-.173 12.196-.008 24.392.007 36.588-.028 1.128-.004 1.841.32 2.405 1.319 1.44 2.551 2.977 5.047 4.461 7.573.221.377.365.799.692 1.529h-35.384zm120.389-.001h-23.391c-.504-1.766-.207-3.426-.259-5.06-.053-1.656-.012-3.316-.012-4.924 1.541-.505 26.726-.606 29.065-.138v10.122h-5.403z"/>
  <path fill="currentColor" d="M446.871 427.623c.029-.061.125-.101.214-.062-.006.079-.147.083-.214.062z"/>
  <path fill="none" d="M318.135 327.022c6.728 3.676 8.375 9.344 7.654 16.088-.641 5.983-4.246 9.54-9.696 11.502a24.602 24.602 0 0 1-8.009 1.459c-8.383.13-16.767.266-25.151.389-.516.008-1.033-.072-1.669-.12v-32.18c.702-.033 1.346-.089 1.989-.089 6.862-.007 13.727-.122 20.586.036 4.857.111 9.695.651 14.296 2.915z"/>
</svg>
