<svg xmlns="http://www.w3.org/2000/svg" xml:space="preserve" width="500" height="500" style="shape-rendering:geometricPrecision;text-rendering:geometricPrecision;image-rendering:optimizeQuality;fill-rule:evenodd;clip-rule:evenodd" viewBox="231.529 389.647 7662.118 6848.941">
  <defs>
    <style>
      .fil0{fill:#ffffff}
    </style>
  </defs>
  <g id="Layer_x0020_1">
    <path class="fil0" d="M5756.235 3591.529c149.647-65.882 513.882-175.059 912 84.706-672.941-100.706-618.353 352-102.588 263.529 0 0 637.176-192.941 1149.176 324.706-1061.647-266.353-809.412 546.824-1631.059 368 0 0 80.941 183.529 484.706 159.059 0 0-549.647 208.941-831.059 52.706 74.353-204.235 114.824-424.471 114.824-654.118 0-208.941-33.882-410.353-96-598.588zm-960.941-1114.353c53.647-162.824 213.647-490.353 655.059-617.412-516.706 442.353-138.353 698.353 132.706 250.353 0 0 271.059-608 998.588-655.059-897.882 626.824-117.647 969.412-790.588 1472.941 0 0 191.059 59.294 437.647-262.588 0 0-233.412 636.235-573.176 679.529-184.471-374.588-487.529-680.471-860.235-867.765zm-1457.882-108.235c-75.294-154.353-189.176-499.765 37.647-898.824-60.235 676.706 388.706 595.765 270.118 86.588 0 0-230.588-624 255.059-1167.059-202.353 1076.706 594.824 775.529 465.882 1606.588 0 0 177.882-91.294 128.941-494.118 0 0 272 605.176 71.529 878.118-197.647-68.706-409.412-106.353-630.588-106.353-208.941 0-410.353 33.882-598.588 95.059zm-1098.353 928.941c-165.647-60.235-477.176-226.824-596.706-656 438.588 520.471 697.412 144.941 251.294-129.882 0 0-605.176-276.706-647.529-1003.294 621.176 901.647 969.412 124.235 1467.294 801.882 0 0 61.176-191.059-258.824-439.529 0 0 637.176 239.059 674.824 579.765-381.176 176.941-694.588 476.235-890.353 847.059zm-100.706 1559.53c-176 70.588-472.471 128.941-813.176-51.765 679.529 40.471 585.412-405.647 79.059-272 0 0-617.412 247.529-1172.706-223.059 1081.412 172.235 758.588-615.529 1592.471-510.118 0 0-96.941-175.059-496.941-114.824 0 0 503.529-244.706 800.941-134.588-70.588 199.529-109.176 415.059-109.176 639.059 0 235.294 42.353 460.235 119.529 667.294zm-1808 1518.117s2685.176-1835.294 7563.294-716.235c0 0-1208.471 89.412-1744.941 850.824C2992.941 5437.177 330.353 6375.53 330.353 6375.53z"/>
    <path class="fil0" d="M423.529 6416.941S4112 5907.765 5785.412 6767.059l-2074.353 471.529s-2168.471-785.882-3287.53-821.647zM3936 2509.176c906.353 0 1642.353 736 1642.353 1642.353 0 390.588-136.471 748.235-363.294 1030.588-882.824-83.765-1815.529 39.529-2420.706 150.588-308.706-298.353-501.647-717.176-501.647-1181.176 0-906.353 736-1642.353 1643.294-1642.353z"/>
  </g>
</svg>
